<svg version="1.1" id="Layer_1" xmlns="http://www.w3.org/2000/svg" xmlns:xlink="http://www.w3.org/1999/xlink" x="0px" y="0px"
	 width="454.9px" height="289.5px" viewBox="-70 276.4 454.9 289.5" enable-background="new -70 276.4 454.9 289.5"
	 xml:space="preserve">
<g>
	<g>
			<path opacity="0.4" fill="none" stroke="#19181E" stroke-linejoin="round" stroke-miterlimit="10" enable-background="new    " d="
			M156.9,277.9l38.3,11.7l40,66.3l-40,66.3l-38.3-11.7l-38.3,11.7l-40-66.3l40-66.3L156.9,277.9z M118.6,289.6l-40,66.3l40,66.3
			l38.3,11.7l38.3-11.7l40-66.3l-40-66.3l-38.3-11.7L118.6,289.6z M199.7,339.9l-42.8-62l-42.8,62l42.8,70.6L199.7,339.9z
			 M78.6,355.9l35.5-16L78.6,355.9z M235.1,355.9l-35.5-16"/>
		<path fill="none" stroke="#19181E" stroke-width="3" stroke-linejoin="round" stroke-miterlimit="10" d="M118.6,422.2l-40-66.3
			l40-66.3l38.3,11.7l38.3-11.7l40,66.3l-40,66.3l-38.3,11.7L118.6,422.2z M156.9,433.9l38.3-11.7l40-66.3l-40-66.3l-38.3-11.7
			l-38.3,11.7l-40,66.3l40,66.3L156.9,433.9z M156.9,301.3L114,371.9l42.8,62l42.8-62L156.9,301.3z M114,371.9l-35.5-16L114,371.9z
			 M199.7,371.9l35.5-16"/>
	</g>
</g>
</svg>
